<?xml version="1.0" encoding="UTF-8" ?>
<!DOCTYPE svg PUBLIC "-//W3C//DTD SVG 1.1//EN" "http://www.w3.org/Graphics/SVG/1.1/DTD/svg11.dtd">
<svg viewBox="0 0 1000 1000" version="1.1" xmlns="http://www.w3.org/2000/svg">

<path fill="#0000ff" d=" M 112.82 148.11 C 121.06 146.20 129.55 145.85 137.98 146.03 C 144.14 145.79 150.30 146.48 156.31 147.79 C 159.85 148.88 161.96 152.47 162.52 155.95 C 163.69 161.70 163.56 167.68 162.20 173.38 C 161.38 176.33 159.64 179.45 156.49 180.32 C 148.16 181.86 139.46 180.13 131.24 182.37 C 125.40 183.83 121.30 188.99 119.34 194.45 C 114.14 208.03 114.64 222.78 113.74 237.05 C 113.73 256.71 113.88 276.36 113.65 296.02 C 113.05 313.93 110.92 332.69 101.11 348.16 C 92.48 362.20 77.90 372.62 61.46 375.01 C 71.19 377.16 80.96 380.59 88.48 387.36 C 101.48 398.24 108.97 414.48 111.56 431.00 C 112.81 439.26 113.63 447.61 113.67 455.97 C 113.94 480.68 113.57 505.40 113.87 530.10 C 114.64 536.06 114.22 542.11 114.86 548.09 C 115.64 553.46 116.25 558.89 117.81 564.11 C 119.71 569.84 122.41 576.13 128.23 578.83 C 136.85 582.99 146.66 580.55 155.79 581.80 C 159.13 582.48 161.34 585.47 162.18 588.60 C 163.33 593.31 163.49 598.20 163.15 603.02 C 162.73 607.51 161.08 612.55 156.55 614.44 C 147.96 616.98 138.91 616.32 130.06 616.40 C 115.64 615.86 100.33 612.70 89.40 602.61 C 78.67 593.21 73.54 579.10 71.35 565.35 C 68.63 548.71 68.37 531.79 68.52 514.96 C 68.50 496.97 68.55 478.98 68.49 460.98 C 68.38 445.47 67.23 429.28 59.83 415.31 C 54.31 404.27 43.89 395.58 31.70 393.09 C 27.33 392.07 22.26 392.48 18.66 389.36 C 15.76 386.00 15.45 381.23 15.22 377.00 C 15.22 371.81 14.96 366.18 17.71 361.56 C 20.08 358.49 24.37 358.55 27.85 357.93 C 39.04 356.40 49.69 350.40 56.12 341.01 C 64.65 328.80 67.10 313.59 68.19 299.05 C 69.40 269.01 67.13 238.85 69.87 208.87 C 71.47 193.42 74.82 177.29 84.90 164.97 C 91.87 156.30 102.03 150.52 112.82 148.11 Z" />
<path fill="#000000" d=" M 236.89 213.83 C 261.69 190.69 294.58 177.23 328.10 173.52 C 345.28 171.75 362.74 171.59 379.85 174.13 C 399.69 177.23 419.48 182.39 437.36 191.72 C 445.04 196.02 453.22 200.32 458.51 207.61 C 461.58 212.82 461.52 219.08 462.17 224.92 C 462.11 230.34 461.71 235.85 460.18 241.09 C 459.04 243.93 457.07 246.29 454.15 247.38 C 447.41 247.28 442.20 242.60 436.86 239.11 C 416.25 225.62 392.74 215.65 368.01 213.53 C 354.17 213.07 340.09 212.38 326.49 215.60 C 306.32 219.73 287.43 230.20 273.54 245.44 C 257.62 262.81 247.94 285.08 242.86 307.90 C 240.58 318.13 239.46 328.57 238.64 339.00 C 237.66 361.85 238.54 385.01 244.43 407.22 C 249.52 427.03 258.73 446.12 273.05 460.93 C 281.26 469.41 291.24 475.98 301.85 481.07 C 296.52 462.30 289.68 443.95 284.82 425.04 C 284.37 422.26 284.51 419.04 286.96 417.21 C 291.28 414.13 296.89 414.52 301.93 414.33 C 310.66 414.41 319.41 414.01 328.12 414.68 C 332.06 415.16 337.00 416.11 338.31 420.50 C 341.97 433.44 345.98 446.27 349.69 459.19 C 353.06 469.93 355.80 480.88 359.53 491.50 C 363.69 490.81 367.90 490.72 372.11 490.44 C 394.91 487.91 416.72 479.26 436.23 467.37 C 442.98 463.69 449.07 457.74 457.21 457.60 C 463.12 459.61 462.89 466.90 463.40 472.01 C 463.23 480.37 464.69 489.57 459.97 497.02 C 455.03 503.69 447.19 507.18 440.24 511.31 C 418.79 522.41 395.07 528.85 371.14 531.62 C 384.08 575.70 397.17 619.73 410.22 663.78 C 412.16 670.46 414.02 677.17 416.12 683.81 C 416.73 686.15 417.42 688.47 418.15 690.79 C 420.73 700.07 423.93 709.18 426.05 718.58 C 428.12 713.45 429.28 708.03 430.80 702.73 C 436.04 684.60 440.97 666.37 446.21 648.24 C 446.75 646.10 447.35 643.97 447.88 641.84 C 450.49 633.34 452.62 624.71 455.16 616.20 C 467.75 571.16 480.44 526.14 493.13 481.12 C 494.72 475.12 496.44 469.15 498.16 463.19 C 501.66 450.10 505.49 437.11 509.10 424.05 C 510.09 420.21 512.72 416.87 516.63 415.74 C 524.93 413.82 533.50 414.41 541.95 414.31 C 548.20 414.27 554.63 414.24 560.58 416.42 C 563.64 417.55 565.48 420.55 566.41 423.53 C 568.52 430.74 570.84 437.89 572.91 445.11 C 573.23 446.13 573.55 447.15 573.86 448.18 C 576.99 458.38 579.93 468.64 583.13 478.83 C 591.93 508.30 600.93 537.71 609.82 567.16 C 611.43 572.85 613.40 578.44 614.85 584.17 L 615.21 584.77 C 618.66 596.86 622.42 608.86 626.06 620.89 C 626.74 623.21 627.43 625.54 628.12 627.88 C 634.73 649.63 641.25 671.42 647.91 693.16 C 650.16 701.29 653.12 709.24 654.94 717.49 C 655.29 717.57 655.99 717.71 656.34 717.79 C 658.76 707.69 662.02 697.81 664.76 687.80 C 665.26 686.26 665.67 684.70 666.18 683.16 C 675.74 649.78 685.45 616.43 695.20 583.10 C 695.73 580.99 696.34 578.92 696.88 576.83 C 711.73 525.94 726.41 475.00 741.22 424.09 C 742.13 421.60 742.71 418.61 745.08 417.04 C 747.12 415.76 749.59 415.47 751.88 414.83 C 760.23 414.01 768.63 414.37 777.00 414.34 C 782.33 414.46 788.50 414.58 792.34 418.88 C 793.92 423.56 792.15 428.49 791.27 433.15 C 777.86 475.49 764.39 517.80 751.10 560.18 C 746.20 575.00 741.76 589.98 736.92 604.83 C 727.74 634.28 718.16 663.61 709.11 693.09 L 708.66 693.71 C 708.53 694.32 708.27 695.52 708.13 696.12 C 701.89 715.25 695.99 734.50 689.88 753.68 C 688.62 758.14 686.92 763.05 682.47 765.29 C 675.57 768.77 667.56 768.60 660.03 769.10 C 648.27 768.93 636.11 769.88 624.75 766.27 C 617.89 763.98 616.80 756.15 614.83 750.21 C 589.81 668.03 564.69 585.88 539.58 503.73 C 538.38 499.86 537.12 496.00 536.26 492.04 C 535.93 492.22 535.28 492.59 534.96 492.77 C 531.92 506.03 527.70 519.01 524.16 532.16 C 515.39 563.39 506.51 594.60 497.75 625.84 C 495.12 635.18 492.54 644.53 489.83 653.85 C 480.18 688.69 470.18 723.43 460.46 758.24 C 459.53 762.47 455.97 765.78 451.84 766.87 C 445.74 768.65 439.32 768.82 433.01 769.10 C 421.85 769.03 410.53 769.60 399.56 767.18 C 395.07 766.24 390.69 763.29 389.46 758.66 C 366.79 686.36 343.82 614.15 321.23 541.82 C 319.60 538.31 319.57 533.88 317.06 530.93 C 281.46 526.48 246.36 510.73 222.69 483.22 C 206.96 465.41 196.53 443.46 190.16 420.71 C 184.24 398.98 182.21 376.37 182.37 353.91 C 182.72 331.10 185.39 308.17 192.33 286.36 C 200.91 259.05 215.63 233.25 236.89 213.83 Z" />
<path fill="#0000ff" d=" M 843.36 386.51 C 849.81 385.15 856.40 384.34 863.01 384.65 C 878.78 384.29 895.75 386.53 908.46 396.68 C 919.65 405.36 925.32 419.12 928.17 432.61 C 931.28 449.55 931.84 466.83 931.74 484.02 C 931.75 504.02 931.73 524.02 931.75 544.02 C 932.21 556.12 932.82 568.96 939.69 579.40 C 945.17 588.38 955.25 593.17 965.20 595.36 C 969.56 596.53 974.13 596.59 978.51 597.66 C 981.73 598.71 983.01 602.04 984.39 604.81 C 984.91 610.24 985.02 615.75 984.49 621.19 C 983.88 624.56 982.04 628.34 978.47 629.33 C 974.04 630.35 969.40 630.43 965.13 632.12 C 954.95 635.67 947.37 644.22 942.33 653.47 C 934.61 667.98 932.63 684.65 931.98 700.84 C 931.20 727.19 932.44 753.59 931.23 779.93 C 930.18 794.76 928.81 809.93 922.65 823.65 C 919.16 831.54 914.06 838.89 907.00 843.97 C 896.74 851.71 883.69 854.53 871.07 854.95 C 861.78 855.09 852.39 855.13 843.26 853.22 C 837.49 850.78 836.20 843.59 836.19 838.00 C 836.09 831.91 836.91 824.12 842.79 820.81 C 851.23 819.08 860.07 820.92 868.43 818.67 C 875.94 816.69 880.31 809.36 882.19 802.30 C 886.56 787.61 885.26 772.13 886.26 757.03 C 886.23 741.35 886.26 725.67 886.24 709.99 C 886.11 699.59 887.02 689.21 888.71 678.96 C 891.42 662.67 896.75 646.29 907.25 633.29 C 914.85 623.37 926.01 616.30 938.33 614.00 C 924.06 611.18 909.37 605.64 899.95 594.02 C 889.51 581.19 886.80 564.09 886.31 548.03 C 886.17 526.34 886.28 504.65 886.25 482.96 C 885.23 467.98 886.57 452.64 882.32 438.04 C 880.60 431.68 877.51 424.71 871.09 421.91 C 862.79 418.37 853.60 420.18 844.87 419.36 C 841.26 419.06 838.25 416.19 837.26 412.79 C 835.83 408.33 836.21 403.54 836.29 398.93 C 836.49 394.08 838.30 388.25 843.36 386.51 Z" />
</svg>
