<?xml version="1.0" encoding="UTF-8" ?>
<!DOCTYPE svg PUBLIC "-//W3C//DTD SVG 1.1//EN" "http://www.w3.org/Graphics/SVG/1.1/DTD/svg11.dtd">
<svg viewBox="0 0 1490 671" preserveAspectRatio="xMinYMin meet" version="1.1" xmlns="http://www.w3.org/2000/svg">

<path fill="#0505ff" d=" M 63.39 58.33 C 73.40 51.25 86.28 51.19 98.02 51.76 C 101.11 52.30 105.05 52.08 107.01 55.03 C 109.03 58.32 108.61 62.37 108.54 66.06 C 108.36 69.17 107.45 73.11 104.10 74.20 C 98.14 75.18 91.76 73.57 86.05 76.07 C 82.27 77.66 80.33 81.62 79.19 85.33 C 76.87 93.01 76.57 101.10 76.37 109.07 C 76.24 122.38 76.50 135.70 76.23 149.01 C 75.78 159.81 74.89 171.02 69.78 180.77 C 64.48 191.65 54.01 199.62 42.12 201.87 C 53.55 203.40 63.53 211.05 68.94 221.09 C 74.61 231.02 75.77 242.67 76.21 253.89 C 76.48 267.27 76.28 280.66 76.34 294.04 C 76.39 303.99 76.19 314.08 78.44 323.83 C 79.53 328.22 81.42 333.04 85.70 335.20 C 91.86 338.18 98.97 335.50 105.26 337.68 C 108.60 339.86 108.55 344.38 108.64 347.94 C 108.70 351.70 108.38 356.42 104.60 358.37 C 98.61 360.32 92.19 359.69 85.99 359.72 C 74.91 359.51 63.14 355.75 56.29 346.56 C 48.08 335.52 47.45 321.20 46.66 308.01 C 46.29 289.69 46.76 271.36 46.40 253.04 C 46.09 243.56 44.58 233.72 39.43 225.57 C 35.33 218.95 28.28 214.18 20.52 213.19 C 17.92 212.67 14.54 212.68 13.10 210.00 C 11.13 205.95 11.37 201.23 11.83 196.88 C 12.25 194.97 12.69 192.59 14.64 191.65 C 18.10 190.31 21.92 190.38 25.41 189.13 C 33.29 186.55 39.39 179.90 42.26 172.23 C 46.64 161.03 46.59 148.81 46.53 136.97 C 46.67 121.08 45.91 105.12 47.82 89.30 C 49.28 77.73 53.35 65.25 63.39 58.33 Z" />
<path fill="#030303" d=" M 336.70 59.83 C 336.50 56.32 340.43 55.13 343.22 54.73 C 349.70 53.98 356.31 53.96 362.79 54.75 C 365.62 55.12 369.26 56.50 369.24 59.91 C 369.35 137.25 369.25 214.61 369.30 291.96 C 369.29 295.03 369.64 298.22 368.22 301.07 C 364.71 302.71 360.86 303.50 356.99 303.43 C 350.58 303.37 343.84 304.10 337.88 301.20 C 337.58 300.69 336.99 299.68 336.70 299.17 C 336.69 219.39 336.68 139.61 336.70 59.83 Z" />
<path fill="#030303" d=" M 162.46 91.31 C 181.71 75.96 206.58 68.87 230.98 68.76 C 245.98 68.45 260.95 71.20 275.15 75.94 C 283.96 79.03 292.71 82.99 299.81 89.16 C 304.70 93.26 304.58 100.21 304.57 106.03 C 304.33 109.92 304.18 114.62 300.89 117.27 C 297.20 119.00 293.55 116.33 290.59 114.36 C 279.27 106.41 266.51 100.46 253.01 97.37 C 233.85 93.68 212.88 94.80 195.73 104.86 C 179.61 114.18 168.88 130.72 163.42 148.20 C 157.13 168.76 156.43 190.79 159.63 211.97 C 162.50 229.99 169.64 248.17 183.48 260.58 C 197.54 273.47 217.25 278.37 235.96 277.71 C 256.69 278.06 276.52 269.79 293.55 258.50 C 296.32 256.40 299.79 255.70 303.20 256.32 C 306.17 261.33 305.41 267.37 305.47 272.94 C 305.53 277.51 303.89 282.29 299.99 284.96 C 288.82 292.95 275.75 297.94 262.46 301.14 C 245.43 305.47 227.60 305.89 210.20 303.91 C 187.73 301.16 165.49 291.81 149.91 275.03 C 131.61 255.81 123.34 229.12 121.61 203.10 C 120.84 187.40 121.15 171.52 124.48 156.10 C 129.57 131.18 142.24 107.19 162.46 91.31 Z" />
<path fill="#030303" d=" M 451.39 138.35 C 464.51 131.75 479.35 129.02 493.97 129.26 C 509.01 129.14 524.40 131.94 537.49 139.64 C 552.40 147.82 563.20 162.54 567.48 178.91 C 570.80 190.21 571.19 202.09 570.72 213.78 C 570.52 217.54 568.03 220.94 564.57 222.39 C 561.31 224.11 557.54 223.63 554.00 223.69 C 516.86 223.68 479.73 223.67 442.59 223.70 C 442.86 238.42 445.01 254.39 455.17 265.83 C 465.99 278.06 483.18 282.17 498.96 281.82 C 517.11 282.51 535.09 278.22 551.87 271.56 C 554.72 270.50 558.14 269.31 561.04 270.83 C 563.89 273.77 563.37 278.25 563.47 282.00 C 563.56 286.28 563.14 291.56 558.94 293.89 C 551.79 297.75 543.81 299.74 535.95 301.59 C 514.77 306.37 492.62 307.81 471.19 303.87 C 453.81 300.68 436.80 292.40 425.71 278.32 C 415.21 265.24 410.52 248.49 408.98 232.03 C 407.20 211.51 409.11 190.05 418.42 171.39 C 425.44 157.17 437.13 145.33 451.39 138.35 Z" />
<path fill="#030303" d=" M 797.00 146.89 C 812.87 134.01 833.79 128.72 853.96 129.27 C 871.50 129.13 889.47 133.61 903.60 144.33 C 915.73 153.40 923.83 167.15 927.17 181.83 C 929.88 192.34 930.11 203.27 929.64 214.06 C 929.28 219.81 923.50 223.69 918.08 223.67 C 879.23 223.70 840.39 223.66 801.54 223.69 C 801.73 238.68 804.09 254.95 814.61 266.43 C 825.81 278.51 843.16 282.31 859.07 281.82 C 877.26 282.42 895.19 277.79 911.99 271.12 C 914.80 270.20 919.15 268.94 921.00 272.09 C 922.77 275.44 922.33 279.35 922.40 283.00 C 922.38 286.74 921.90 291.14 918.56 293.46 C 914.20 296.09 909.30 297.67 904.46 299.15 C 884.51 304.71 863.62 307.38 842.94 305.58 C 823.71 304.14 803.92 297.94 789.92 284.13 C 777.39 272.08 770.98 255.04 768.63 238.11 C 766.43 221.16 766.76 203.65 771.35 187.10 C 775.64 171.57 784.23 156.93 797.00 146.89 Z" />
<path fill="#030303" d=" M 1025.84 134.00 C 1037.07 127.86 1050.69 128.34 1062.78 131.40 C 1065.96 132.28 1070.04 133.22 1071.19 136.80 C 1071.88 139.81 1071.64 142.94 1071.76 146.00 C 1071.70 150.78 1072.07 155.71 1070.27 160.24 C 1068.44 161.68 1066.07 162.06 1063.93 161.13 C 1055.64 158.30 1046.80 155.99 1038.02 157.66 C 1030.24 159.52 1023.79 164.73 1018.34 170.37 C 1012.24 176.74 1006.99 183.87 1001.93 191.07 C 1000.98 192.14 1001.19 193.63 1001.14 194.94 C 1001.18 228.66 1001.14 262.37 1001.16 296.08 C 1001.07 297.91 1001.05 300.22 999.25 301.25 C 995.29 303.55 990.48 303.39 986.06 303.45 C 980.85 303.38 975.34 303.84 970.52 301.50 C 968.78 300.74 968.32 298.73 968.51 297.02 C 968.57 243.27 968.46 189.52 968.57 135.77 C 968.90 135.29 969.56 134.31 969.89 133.82 C 976.13 131.08 983.17 131.74 989.79 132.06 C 992.87 132.21 997.66 133.16 997.73 137.04 C 997.94 144.80 997.70 152.56 997.84 160.31 C 1005.83 150.29 1014.42 140.24 1025.84 134.00 Z" />
<path fill="#030303" d=" M 586.29 136.83 C 586.07 133.79 589.50 132.52 591.99 132.31 C 599.61 131.51 607.40 131.50 615.00 132.60 C 618.53 132.97 620.68 136.09 621.69 139.21 C 636.93 179.64 652.15 220.07 667.38 260.51 C 668.75 264.10 669.89 267.80 671.71 271.20 C 688.21 226.38 704.99 181.66 721.61 136.88 C 723.29 132.37 728.73 132.31 732.77 131.94 C 738.71 131.81 744.74 131.41 750.60 132.59 C 752.28 132.92 753.37 134.37 754.53 135.51 C 754.65 140.78 752.49 145.65 750.61 150.45 C 731.29 199.20 712.10 248.01 692.78 296.76 C 691.88 299.47 689.70 301.65 686.87 302.24 C 678.71 304.18 670.23 303.30 661.93 303.31 C 656.93 302.80 650.21 302.44 648.15 296.92 C 628.59 247.33 609.09 197.72 589.54 148.14 C 588.24 144.45 586.25 140.83 586.29 136.83 Z" />
<path fill="#fefeff" d=" M 491.03 152.35 C 503.44 152.05 516.81 155.09 525.69 164.32 C 535.59 174.13 538.60 188.72 538.31 202.19 C 506.39 202.21 474.47 202.22 442.56 202.19 C 443.48 187.93 448.56 173.18 459.64 163.64 C 468.25 156.16 479.64 152.14 491.03 152.35 Z" />
<path fill="#fefeff" d=" M 818.65 163.58 C 827.27 156.13 838.64 152.14 850.02 152.35 C 862.64 152.02 876.29 155.26 885.13 164.84 C 894.67 174.66 897.49 188.94 897.26 202.19 C 865.34 202.21 833.43 202.21 801.52 202.19 C 802.34 187.89 807.56 173.13 818.65 163.58 Z" />
<path fill="#0505ff" d=" M 1384.87 313.75 C 1390.74 311.93 1396.97 312.26 1403.04 312.28 C 1412.29 312.48 1422.02 314.61 1429.15 320.84 C 1436.11 326.62 1439.55 335.46 1441.32 344.10 C 1442.94 352.96 1443.43 362.00 1443.57 371.00 C 1443.63 386.67 1443.51 402.33 1443.63 417.99 C 1443.88 426.68 1444.99 436.16 1451.09 442.86 C 1456.89 448.99 1465.62 450.62 1473.62 451.66 C 1477.63 452.57 1478.32 457.44 1478.36 460.91 C 1478.28 464.72 1478.76 469.76 1475.12 472.18 C 1470.97 473.55 1466.36 473.40 1462.50 475.68 C 1454.24 480.28 1449.21 489.02 1446.73 497.90 C 1442.79 511.91 1443.70 526.62 1443.58 541.00 C 1443.45 553.29 1444.04 565.62 1442.69 577.86 C 1441.78 588.62 1439.35 599.87 1432.41 608.46 C 1426.50 615.72 1417.20 619.15 1408.13 620.13 C 1400.49 620.61 1392.64 620.91 1385.16 619.08 C 1381.09 616.75 1380.92 611.57 1381.06 607.42 C 1381.13 603.83 1382.03 599.23 1385.79 597.79 C 1392.43 596.77 1400.03 598.96 1405.84 594.66 C 1411.22 590.12 1412.04 582.54 1412.88 575.99 C 1414.05 561.69 1413.53 547.31 1413.66 532.98 C 1413.42 515.89 1414.48 498.01 1422.58 482.59 C 1427.66 472.94 1436.48 464.22 1447.72 462.80 C 1438.58 460.25 1428.73 457.20 1422.68 449.36 C 1415.31 440.32 1413.97 428.22 1413.67 416.97 C 1413.62 403.63 1413.69 390.28 1413.65 376.93 C 1413.39 366.86 1413.75 356.60 1411.08 346.79 C 1409.91 342.87 1408.01 338.63 1404.10 336.80 C 1398.11 333.99 1391.26 336.23 1385.05 334.58 C 1380.93 332.89 1380.98 327.70 1380.79 323.97 C 1380.98 320.34 1381.26 315.69 1384.87 313.75 Z" />
<path fill="#030303" d=" M 1202.37 318.49 C 1205.27 315.14 1209.92 315.30 1213.95 314.89 C 1219.36 314.67 1224.86 314.69 1230.19 315.83 C 1232.59 316.33 1235.04 318.19 1234.68 320.92 C 1234.77 352.65 1234.65 384.38 1234.74 416.11 C 1247.53 404.38 1262.59 394.10 1279.99 391.01 C 1299.18 388.01 1320.29 390.78 1335.99 402.96 C 1351.55 414.48 1359.74 433.36 1362.77 452.03 C 1365.99 472.24 1365.57 493.28 1360.05 513.07 C 1355.48 529.00 1346.61 544.24 1332.87 553.91 C 1322.41 561.41 1309.78 565.52 1297.01 566.49 C 1287.24 567.13 1277.24 566.91 1267.85 563.91 C 1257.61 560.65 1248.48 554.62 1240.31 547.76 C 1237.08 545.22 1234.31 542.14 1230.92 539.81 C 1230.47 546.25 1231.49 552.71 1230.89 559.13 C 1230.90 561.78 1228.08 562.91 1225.90 563.39 C 1219.71 564.55 1213.31 564.51 1207.13 563.43 C 1204.83 563.04 1201.93 561.71 1202.35 558.92 C 1202.32 478.78 1202.29 398.63 1202.37 318.49 Z" />
<path fill="#030303" d=" M 659.73 333.81 C 664.65 330.96 670.50 331.70 675.94 331.58 C 681.02 331.69 686.27 331.14 691.17 332.82 C 694.54 334.06 694.50 338.22 695.60 341.09 C 714.38 404.39 732.90 467.77 751.87 531.02 C 769.22 468.34 787.04 405.78 804.55 343.15 C 805.63 339.93 805.88 336.00 808.66 333.72 C 812.71 331.56 817.51 331.69 821.98 331.58 C 827.93 331.69 834.14 331.01 839.84 333.14 C 843.36 334.60 843.79 338.83 844.88 342.00 C 863.88 405.10 883.05 468.15 902.05 531.25 C 919.66 471.29 936.87 411.20 954.35 351.20 C 956.14 345.39 957.37 339.39 959.84 333.81 C 963.92 331.88 968.50 331.49 972.96 331.58 C 979.11 331.72 985.68 330.78 991.33 333.84 C 992.91 337.35 991.67 341.10 990.78 344.61 C 968.47 415.05 946.20 485.50 923.88 555.93 C 922.98 560.05 919.19 562.63 915.20 563.18 C 905.27 564.69 895.10 564.55 885.16 563.24 C 881.33 562.75 877.70 560.35 876.77 556.43 C 860.55 503.49 844.41 450.52 828.21 397.56 C 826.54 392.40 825.22 387.11 823.20 382.07 C 818.87 399.36 813.56 416.41 808.90 433.62 C 797.27 474.78 785.71 515.96 774.07 557.12 C 773.18 561.26 768.85 563.04 765.05 563.45 C 755.72 564.58 746.24 564.49 736.90 563.42 C 733.23 562.90 728.81 561.56 727.66 557.57 C 705.47 487.26 683.32 416.94 661.14 346.63 C 660.01 343.47 659.31 340.19 658.72 336.90 C 659.05 335.87 659.39 334.84 659.73 333.81 Z" />
<path fill="#030303" d=" M 1025.54 411.59 C 1043.54 394.31 1069.70 388.15 1094.04 390.26 C 1114.89 391.11 1136.23 400.08 1148.84 417.19 C 1159.99 431.90 1163.25 450.94 1163.18 468.99 C 1163.12 472.89 1163.13 477.31 1160.41 480.43 C 1158.00 482.94 1154.48 484.37 1151.02 484.35 C 1112.24 484.38 1073.46 484.28 1034.69 484.40 C 1035.10 497.79 1036.64 512.09 1044.74 523.26 C 1052.19 533.81 1064.64 539.74 1077.17 541.58 C 1099.32 544.76 1122.05 540.98 1142.73 532.72 C 1146.02 531.60 1149.96 529.50 1153.31 531.60 C 1155.90 534.32 1155.49 538.47 1155.63 541.95 C 1155.60 546.26 1155.67 551.75 1151.49 554.31 C 1143.05 558.91 1133.56 561.10 1124.23 563.11 C 1102.34 567.56 1079.35 568.52 1057.51 563.29 C 1043.17 559.68 1029.43 552.46 1019.65 541.20 C 1009.90 529.97 1004.42 515.58 1002.18 501.01 C 999.87 485.85 999.87 470.27 1002.77 455.19 C 1005.94 438.89 1013.46 423.15 1025.54 411.59 Z" />
<path fill="#fefeff" d=" M 1047.55 428.57 C 1056.50 418.20 1070.38 412.51 1084.02 413.16 C 1096.90 412.70 1110.75 416.57 1119.41 426.61 C 1127.99 436.47 1130.71 449.99 1130.46 462.73 C 1098.52 462.74 1066.58 462.83 1034.65 462.69 C 1035.68 450.44 1039.25 437.93 1047.55 428.57 Z" />
<path fill="#fefeff" d=" M 1272.53 417.79 C 1281.77 414.90 1291.96 414.74 1301.17 417.84 C 1310.81 421.27 1318.37 429.13 1322.79 438.21 C 1327.93 448.35 1329.37 459.83 1330.27 471.02 C 1331.16 487.96 1329.43 505.85 1320.69 520.75 C 1316.28 528.38 1309.51 534.72 1301.40 538.23 C 1289.18 543.08 1274.90 541.73 1263.52 535.30 C 1252.44 529.11 1243.22 520.16 1234.72 510.86 C 1234.69 489.54 1234.73 468.21 1234.70 446.88 C 1245.20 434.92 1257.17 423.10 1272.53 417.79 Z" />
</svg>
